<mxfile host="app.diagrams.net" agent="Mozilla/5.0 (Windows NT 10.0; Win64; x64) AppleWebKit/537.36 (KHTML, like Gecko) Chrome/130.0.0.0 Safari/537.36" version="24.8.3">
  <diagram id="C5RBs43oDa-KdzZeNtuy" name="Page-1">
    <mxGraphModel grid="1" page="1" gridSize="10" guides="1" tooltips="1" connect="1" arrows="1" fold="1" pageScale="1" pageWidth="827" pageHeight="1169" math="0" shadow="0">
      <root>
        <mxCell id="WIyWlLk6GJQsqaUBKTNV-0" />
        <mxCell id="WIyWlLk6GJQsqaUBKTNV-1" parent="WIyWlLk6GJQsqaUBKTNV-0" />
        <mxCell id="Ie-9v4msqUb5Xctsg_J5-1" style="edgeStyle=none;curved=1;rounded=0;orthogonalLoop=1;jettySize=auto;html=1;entryX=0.5;entryY=0;entryDx=0;entryDy=0;fontSize=12;startSize=8;endSize=8;" edge="1" parent="WIyWlLk6GJQsqaUBKTNV-1" source="WIyWlLk6GJQsqaUBKTNV-3" target="y1ChY47DEbPpf0Z8L-fI-0">
          <mxGeometry relative="1" as="geometry" />
        </mxCell>
        <mxCell id="WIyWlLk6GJQsqaUBKTNV-3" value="Mulai" style="rounded=1;whiteSpace=wrap;html=1;fontSize=12;glass=0;strokeWidth=1;shadow=0;" vertex="1" parent="WIyWlLk6GJQsqaUBKTNV-1">
          <mxGeometry x="340" y="80" width="120" height="40" as="geometry" />
        </mxCell>
        <mxCell id="Ie-9v4msqUb5Xctsg_J5-2" style="edgeStyle=none;curved=1;rounded=0;orthogonalLoop=1;jettySize=auto;html=1;entryX=0.5;entryY=0;entryDx=0;entryDy=0;fontSize=12;startSize=8;endSize=8;" edge="1" parent="WIyWlLk6GJQsqaUBKTNV-1" source="y1ChY47DEbPpf0Z8L-fI-0" target="Ie-9v4msqUb5Xctsg_J5-0">
          <mxGeometry relative="1" as="geometry" />
        </mxCell>
        <mxCell id="y1ChY47DEbPpf0Z8L-fI-0" value="Amount_Due = 50" style="rounded=0;whiteSpace=wrap;html=1;" vertex="1" parent="WIyWlLk6GJQsqaUBKTNV-1">
          <mxGeometry x="340" y="160" width="120" height="60" as="geometry" />
        </mxCell>
        <mxCell id="Ie-9v4msqUb5Xctsg_J5-5" style="edgeStyle=none;curved=1;rounded=0;orthogonalLoop=1;jettySize=auto;html=1;entryX=0.5;entryY=0;entryDx=0;entryDy=0;fontSize=12;startSize=8;endSize=8;" edge="1" parent="WIyWlLk6GJQsqaUBKTNV-1" source="Ie-9v4msqUb5Xctsg_J5-0" target="Ie-9v4msqUb5Xctsg_J5-4">
          <mxGeometry relative="1" as="geometry" />
        </mxCell>
        <mxCell id="Ie-9v4msqUb5Xctsg_J5-29" style="edgeStyle=none;curved=0;rounded=0;orthogonalLoop=1;jettySize=auto;html=1;fontSize=12;startSize=8;endSize=8;" edge="1" parent="WIyWlLk6GJQsqaUBKTNV-1" source="Ie-9v4msqUb5Xctsg_J5-0" target="Ie-9v4msqUb5Xctsg_J5-27">
          <mxGeometry relative="1" as="geometry">
            <Array as="points">
              <mxPoint x="130" y="340" />
            </Array>
          </mxGeometry>
        </mxCell>
        <mxCell id="Ie-9v4msqUb5Xctsg_J5-0" value="if Amount_Due &amp;gt; 0" style="rhombus;whiteSpace=wrap;html=1;" vertex="1" parent="WIyWlLk6GJQsqaUBKTNV-1">
          <mxGeometry x="325" y="300" width="150" height="80" as="geometry" />
        </mxCell>
        <mxCell id="Ie-9v4msqUb5Xctsg_J5-3" value="While" style="text;html=1;align=center;verticalAlign=middle;whiteSpace=wrap;rounded=0;fontSize=16;" vertex="1" parent="WIyWlLk6GJQsqaUBKTNV-1">
          <mxGeometry x="100" y="280" width="90" height="40" as="geometry" />
        </mxCell>
        <mxCell id="Ie-9v4msqUb5Xctsg_J5-4" value="output(&quot;Amount Due: (Amoun_Due)&quot;)" style="shape=parallelogram;html=1;strokeWidth=2;perimeter=parallelogramPerimeter;whiteSpace=wrap;rounded=1;arcSize=12;size=0.23;" vertex="1" parent="WIyWlLk6GJQsqaUBKTNV-1">
          <mxGeometry x="320" y="440" width="160" height="90" as="geometry" />
        </mxCell>
        <mxCell id="Ie-9v4msqUb5Xctsg_J5-9" style="edgeStyle=none;curved=1;rounded=0;orthogonalLoop=1;jettySize=auto;html=1;entryX=0.5;entryY=0;entryDx=0;entryDy=0;fontSize=12;startSize=8;endSize=8;" edge="1" parent="WIyWlLk6GJQsqaUBKTNV-1" source="Ie-9v4msqUb5Xctsg_J5-6" target="Ie-9v4msqUb5Xctsg_J5-8">
          <mxGeometry relative="1" as="geometry" />
        </mxCell>
        <mxCell id="Ie-9v4msqUb5Xctsg_J5-6" value="input(Coin)" style="shape=parallelogram;html=1;strokeWidth=2;perimeter=parallelogramPerimeter;whiteSpace=wrap;rounded=1;arcSize=12;size=0.23;" vertex="1" parent="WIyWlLk6GJQsqaUBKTNV-1">
          <mxGeometry x="310" y="580" width="160" height="90" as="geometry" />
        </mxCell>
        <mxCell id="Ie-9v4msqUb5Xctsg_J5-7" style="edgeStyle=none;curved=1;rounded=0;orthogonalLoop=1;jettySize=auto;html=1;entryX=0.55;entryY=0.022;entryDx=0;entryDy=0;entryPerimeter=0;fontSize=12;startSize=8;endSize=8;" edge="1" parent="WIyWlLk6GJQsqaUBKTNV-1" source="Ie-9v4msqUb5Xctsg_J5-4" target="Ie-9v4msqUb5Xctsg_J5-6">
          <mxGeometry relative="1" as="geometry" />
        </mxCell>
        <mxCell id="Ie-9v4msqUb5Xctsg_J5-10" style="edgeStyle=none;curved=1;rounded=0;orthogonalLoop=1;jettySize=auto;html=1;fontSize=12;startSize=8;endSize=8;" edge="1" parent="WIyWlLk6GJQsqaUBKTNV-1" source="Ie-9v4msqUb5Xctsg_J5-8">
          <mxGeometry relative="1" as="geometry">
            <mxPoint x="310" y="780" as="targetPoint" />
          </mxGeometry>
        </mxCell>
        <mxCell id="Ie-9v4msqUb5Xctsg_J5-24" style="edgeStyle=none;curved=0;rounded=0;orthogonalLoop=1;jettySize=auto;html=1;entryX=1;entryY=0.5;entryDx=0;entryDy=0;fontSize=12;startSize=8;endSize=8;" edge="1" parent="WIyWlLk6GJQsqaUBKTNV-1" source="Ie-9v4msqUb5Xctsg_J5-8" target="Ie-9v4msqUb5Xctsg_J5-0">
          <mxGeometry relative="1" as="geometry">
            <Array as="points">
              <mxPoint x="620" y="780" />
              <mxPoint x="620" y="340" />
            </Array>
          </mxGeometry>
        </mxCell>
        <mxCell id="Ie-9v4msqUb5Xctsg_J5-8" value="if coin in [25, 10, 5]:" style="rhombus;whiteSpace=wrap;html=1;" vertex="1" parent="WIyWlLk6GJQsqaUBKTNV-1">
          <mxGeometry x="315" y="740" width="150" height="80" as="geometry" />
        </mxCell>
        <mxCell id="Ie-9v4msqUb5Xctsg_J5-23" style="edgeStyle=none;curved=0;rounded=0;orthogonalLoop=1;jettySize=auto;html=1;fontSize=12;startSize=8;endSize=8;exitX=1;exitY=0.5;exitDx=0;exitDy=0;entryX=1;entryY=0.5;entryDx=0;entryDy=0;" edge="1" parent="WIyWlLk6GJQsqaUBKTNV-1" source="Ie-9v4msqUb5Xctsg_J5-11" target="Ie-9v4msqUb5Xctsg_J5-0">
          <mxGeometry relative="1" as="geometry">
            <mxPoint x="670" y="340" as="targetPoint" />
            <mxPoint x="500.0031578947369" y="920" as="sourcePoint" />
            <Array as="points">
              <mxPoint x="670" y="910" />
              <mxPoint x="670" y="340" />
            </Array>
          </mxGeometry>
        </mxCell>
        <mxCell id="Ie-9v4msqUb5Xctsg_J5-11" value="Amount_Due -= coin" style="rounded=0;whiteSpace=wrap;html=1;" vertex="1" parent="WIyWlLk6GJQsqaUBKTNV-1">
          <mxGeometry x="220" y="880" width="120" height="60" as="geometry" />
        </mxCell>
        <mxCell id="Ie-9v4msqUb5Xctsg_J5-17" value="yes" style="text;html=1;align=center;verticalAlign=middle;whiteSpace=wrap;rounded=0;fontSize=16;" vertex="1" parent="WIyWlLk6GJQsqaUBKTNV-1">
          <mxGeometry x="230" y="750" width="60" height="30" as="geometry" />
        </mxCell>
        <mxCell id="Ie-9v4msqUb5Xctsg_J5-19" style="edgeStyle=none;curved=0;rounded=0;orthogonalLoop=1;jettySize=auto;html=1;entryX=0.412;entryY=0.007;entryDx=0;entryDy=0;entryPerimeter=0;fontSize=12;startSize=8;endSize=8;" edge="1" parent="WIyWlLk6GJQsqaUBKTNV-1" source="Ie-9v4msqUb5Xctsg_J5-8" target="Ie-9v4msqUb5Xctsg_J5-11">
          <mxGeometry relative="1" as="geometry">
            <Array as="points">
              <mxPoint x="269" y="780" />
            </Array>
          </mxGeometry>
        </mxCell>
        <mxCell id="Ie-9v4msqUb5Xctsg_J5-20" value="No" style="text;html=1;align=center;verticalAlign=middle;whiteSpace=wrap;rounded=0;fontSize=16;" vertex="1" parent="WIyWlLk6GJQsqaUBKTNV-1">
          <mxGeometry x="490" y="750" width="60" height="30" as="geometry" />
        </mxCell>
        <mxCell id="Ie-9v4msqUb5Xctsg_J5-25" value="False" style="text;html=1;align=center;verticalAlign=middle;whiteSpace=wrap;rounded=0;fontSize=16;" vertex="1" parent="WIyWlLk6GJQsqaUBKTNV-1">
          <mxGeometry x="240" y="300" width="60" height="30" as="geometry" />
        </mxCell>
        <mxCell id="Ie-9v4msqUb5Xctsg_J5-26" value="True" style="text;html=1;align=center;verticalAlign=middle;whiteSpace=wrap;rounded=0;fontSize=16;" vertex="1" parent="WIyWlLk6GJQsqaUBKTNV-1">
          <mxGeometry x="414" y="380" width="60" height="30" as="geometry" />
        </mxCell>
        <mxCell id="Ie-9v4msqUb5Xctsg_J5-31" style="edgeStyle=none;curved=0;rounded=1;orthogonalLoop=1;jettySize=auto;html=1;fontSize=12;startSize=8;endSize=8;" edge="1" parent="WIyWlLk6GJQsqaUBKTNV-1" source="Ie-9v4msqUb5Xctsg_J5-27" target="Ie-9v4msqUb5Xctsg_J5-30">
          <mxGeometry relative="1" as="geometry">
            <Array as="points">
              <mxPoint x="360" y="1000" />
              <mxPoint x="360" y="1020" />
            </Array>
          </mxGeometry>
        </mxCell>
        <mxCell id="Ie-9v4msqUb5Xctsg_J5-27" value="output(&quot;change owed =&amp;nbsp;&lt;div&gt;abs(Amount_due)&quot;)&lt;/div&gt;" style="shape=parallelogram;html=1;strokeWidth=2;perimeter=parallelogramPerimeter;whiteSpace=wrap;rounded=1;arcSize=12;size=0.23;" vertex="1" parent="WIyWlLk6GJQsqaUBKTNV-1">
          <mxGeometry x="20" y="950" width="190" height="110" as="geometry" />
        </mxCell>
        <mxCell id="Ie-9v4msqUb5Xctsg_J5-30" value="Selesai" style="rounded=1;whiteSpace=wrap;html=1;fontSize=12;glass=0;strokeWidth=1;shadow=0;" vertex="1" parent="WIyWlLk6GJQsqaUBKTNV-1">
          <mxGeometry x="300" y="1100" width="120" height="40" as="geometry" />
        </mxCell>
      </root>
    </mxGraphModel>
  </diagram>
</mxfile>
